<?xml version="1.0" encoding="iso-8859-1"?>
<!-- Generator: Adobe Illustrator 19.0.0, SVG Export Plug-In . SVG Version: 6.00 Build 0)  -->
<svg version="1.1" id="Capa_1" xmlns="http://www.w3.org/2000/svg" xmlns:xlink="http://www.w3.org/1999/xlink" x="0px" y="0px"
	 viewBox="0 0 512 512" style="enable-background:new 0 0 512 512;" xml:space="preserve">
<path style="fill:#FF709D;" d="M387.316,224.009c-4.267,0-7.724,3.458-7.724,7.724c0,4.26-3.465,7.724-7.724,7.724H258.575v15.449
	h113.292c12.777,0,23.173-10.395,23.173-23.173C395.04,227.468,391.583,224.009,387.316,224.009z"/>
<path style="fill:#FF91AB;" d="M212.228,239.458c-44.012,0-79.819-35.806-79.819-79.819c0-4.266-3.457-7.724-7.724-7.724
	c-4.267,0-7.724,3.458-7.724,7.724c0,52.531,42.737,95.268,95.268,95.268h46.347v-15.449H212.228z"/>
<polygon style="fill:#FF709D;" points="243.126,335.763 304.922,335.763 304.922,262.632 243.126,247.183 "/>
<polygon style="fill:#FF91AB;" points="258.575,335.763 212.228,335.763 212.228,262.632 258.575,247.183 "/>
<path style="fill:#53C76D;" d="M334.296,351.352c-0.299-1.504-1.045-4.47-1.045-4.47h-88.61L335.851,512h30.898L334.296,351.352z"/>
<path style="fill:#7ADB8F;" d="M306.437,366.378l-122.536-19.497c-0.391,1.473-0.747,2.966-1.045,4.47L150.402,512h185.449
	L306.437,366.378z"/>
<path style="fill:#E60048;" d="M304.923,304.871h-30.898l32.412,61.507c9.661-4.913,18.729-11.412,26.814-19.497
	C328.76,329.857,318.6,315.15,304.923,304.871z"/>
<path style="fill:#FF3776;" d="M303.398,351.352c-3.8-18.91-14.512-35.316-29.374-46.481h-61.796
	c-13.677,10.279-23.838,24.986-28.328,42.011c33.184,33.184,82.883,39.683,122.536,19.497L303.398,351.352z"/>
<path style="fill:#FFE368;" d="M284.323,226.584h-30.898l20.599,36.047h30.898v-15.449
	C304.922,235.806,295.7,226.584,284.323,226.584z"/>
<path style="fill:#FFEFAB;" d="M253.425,226.584h-20.599c-11.377,0-20.599,9.222-20.599,20.599v15.449h61.796v-15.449
	C274.024,235.806,264.802,226.584,253.425,226.584z"/>
<polygon style="fill:#7ADB8F;" points="258.575,0 227.677,114.807 289.473,114.807 "/>
<path style="fill:#9A3522;" d="M204.504,149.34c-12.798,0-23.173,10.374-23.173,23.173c0,12.798,10.376,23.173,23.173,23.173h54.071
	V149.34H204.504z"/>
<path style="fill:#871F0C;" d="M302.275,133.891l-43.7,15.449v-46.347C278.751,102.993,295.92,115.888,302.275,133.891z"/>
<path style="fill:#9A3522;" d="M273.138,133.891l-14.563,15.449l-43.545-15.449l-0.144-0.051
	c6.375-17.972,23.534-30.846,43.69-30.846C265.3,102.993,271.016,115.888,273.138,133.891z"/>
<path style="fill:#E4B780;" d="M302.275,133.891h-29.137l-14.563,61.796c25.594,0,46.347-20.753,46.347-46.347
	C304.922,143.922,303.995,138.721,302.275,133.891z"/>
<path style="fill:#F2D392;" d="M273.138,133.891c0.577,4.83,0.886,10.032,0.886,15.449c0,25.594-6.921,46.347-15.449,46.347
	c-25.594,0-46.347-20.753-46.347-46.347c0-5.438,0.937-10.649,2.657-15.5l0.144,0.051H273.138z"/>
<path style="fill:#FFAA0E;" d="M348.694,101.113v161.518c0,4.266,3.457,7.724,7.724,7.724s7.724-3.458,7.724-7.724V101.113H348.694z
	"/>
<polygon style="fill:#FFE368;" points="356.418,64.858 367.558,87.429 392.465,91.048 374.442,108.617 378.696,133.424 
	356.418,121.712 334.14,133.424 338.394,108.617 320.371,91.048 345.279,87.429 "/>
<path style="fill:#FF709D;" d="M387.316,239.458c-4.267,0-7.724-3.459-7.724-7.724c0-4.26-3.465-7.724-7.724-7.724h-30.898
	c-4.267,0-7.724-3.458-7.724-7.724s3.457-7.724,7.724-7.724h30.898c12.777,0,23.173,10.395,23.173,23.173
	C395.04,236,391.583,239.458,387.316,239.458z"/>
<g>
</g>
<g>
</g>
<g>
</g>
<g>
</g>
<g>
</g>
<g>
</g>
<g>
</g>
<g>
</g>
<g>
</g>
<g>
</g>
<g>
</g>
<g>
</g>
<g>
</g>
<g>
</g>
<g>
</g>
</svg>
